<svg xmlns="http://www.w3.org/2000/svg" xmlns:xlink="http://www.w3.org/1999/xlink" width="1080" zoomAndPan="magnify" viewBox="0 0 810 809.999993" height="1080" preserveAspectRatio="xMidYMid meet" version="1.0"><defs><clipPath id="fbad8086a5"><path d="M 81 57.632812 L 725 57.632812 L 725 752.132812 L 81 752.132812 Z M 81 57.632812 " clip-rule="nonzero"/></clipPath></defs><g clip-path="url(#fbad8086a5)"><path fill="#36e9fd" d="M 386.511719 748.21875 C 285.898438 698.394531 223.832031 651.375 191.1875 600.242188 C 163.710938 557.164062 160.667969 515.03125 162.113281 478.921875 C 143.335938 475.792969 124.171875 471.742188 105.078125 466.894531 L 81.046875 460.828125 L 162.039062 334.753906 C 150.203125 252.765625 122.183594 215.269531 121.898438 214.910156 L 109.429688 199.257812 L 126.59375 188.703125 C 205.644531 140.085938 243.015625 68.136719 243.390625 67.414062 L 248.375 57.632812 L 540.484375 57.632812 L 545.453125 67.402344 C 545.828125 68.121094 583.1875 140.101562 662.265625 188.734375 L 679.519531 199.269531 L 666.84375 215.074219 C 666.632812 215.347656 640.433594 250.539062 627.964844 327.484375 L 655.882812 298.011719 C 660.113281 293.542969 666.074219 291.074219 672.671875 291.074219 C 676.78125 291.074219 681.175781 292.035156 685.722656 293.917969 C 692.378906 296.671875 699.605469 301.550781 706.035156 307.628906 C 712.496094 313.742188 717.765625 320.679688 720.867188 327.167969 C 728.9375 344.027344 721.035156 354.367188 718.414062 357.136719 L 642.421875 437.394531 C 664.101562 465.34375 668.9375 486.011719 656.769531 498.867188 L 646.457031 509.75 C 643.25 513.179688 637.40625 517.304688 627.933594 517.304688 C 627.332031 517.304688 626.714844 517.289062 626.097656 517.246094 C 623.886719 542.261719 616.417969 577.753906 585.957031 616.828125 C 551.355469 661.234375 491.308594 704.207031 402.410156 748.21875 L 394.488281 752.132812 Z M 386.511719 748.21875 " fill-opacity="1" fill-rule="nonzero"/></g><path fill="#889baa" d="M 236.164062 573.164062 C 232.777344 579.363281 226.648438 591.210938 221.183594 604.953125 C 184.730469 558.757812 181.613281 515.226562 184.472656 468.234375 C 195.074219 469.652344 205.539062 470.792969 215.867188 471.605469 C 214.273438 498.21875 214.859375 519.53125 221.679688 540.96875 C 217.902344 547.980469 214.707031 555.339844 211.894531 562.867188 L 210.371094 566.992188 L 214.707031 568.015625 Z M 527.171875 79.410156 L 261.6875 79.410156 C 254.746094 92.117188 216.453125 157.683594 141.589844 205.019531 C 149.300781 216.324219 171.917969 254.648438 183.011719 327.816406 L 207.859375 289.148438 C 201.878906 262.714844 194.003906 238.632812 184.351562 217.605469 L 183.058594 214.746094 L 185.558594 212.832031 C 233.832031 176.03125 264.488281 134.335938 278.429688 112.738281 L 279.589844 110.945312 L 509.242188 110.945312 L 510.398438 112.738281 C 524.359375 134.320312 555 176.03125 603.273438 212.832031 L 605.769531 214.746094 L 604.476562 217.605469 C 598.921875 229.78125 593.875 243.074219 589.480469 257.222656 L 595.847656 258.742188 L 594.328125 262.894531 C 593.953125 263.90625 589.71875 275.207031 580.308594 292.15625 C 574.648438 318.015625 570.882812 346.058594 569.183594 375.546875 C 568.941406 379.457031 568.792969 383.433594 568.714844 387.585938 C 573.746094 390.898438 578.230469 394.179688 581.542969 396.722656 L 600.695312 376.492188 C 607.035156 271.265625 637.949219 218.65625 647.222656 205.050781 C 572.40625 157.683594 534.113281 92.117188 527.171875 79.410156 Z M 527.171875 79.410156 " fill-opacity="1" fill-rule="nonzero"/><path fill="#38485f" d="M 584.933594 376.449219 C 583.457031 401.480469 585.292969 424.886719 587.054688 447.523438 C 590.578125 492.394531 593.636719 531.152344 570.792969 572.019531 C 545.949219 616.558594 491.21875 660.253906 403.464844 705.574219 L 394.414062 710.257812 L 385.367188 705.574219 C 297.613281 660.253906 242.894531 616.558594 218.035156 572.019531 C 195.195312 531.136719 198.25 492.394531 201.757812 447.539062 C 203.550781 424.886719 205.386719 401.480469 203.914062 376.449219 C 199.53125 302.136719 183.058594 252.617188 170.019531 224.167969 L 163.589844 210.183594 L 205.253906 219.9375 L 291.078125 131.175781 L 270.828125 95.503906 L 271.023438 95.1875 L 517.824219 95.1875 L 518.152344 95.699219 L 504.949219 118.816406 L 596.03125 217.183594 L 625.058594 210.589844 L 618.8125 224.183594 C 605.785156 252.617188 589.300781 302.136719 584.933594 376.449219 Z M 584.933594 376.449219 " fill-opacity="1" fill-rule="nonzero"/><path fill="#012130" d="M 291.09375 131.160156 L 205.269531 219.921875 L 163.605469 210.167969 L 163.453125 209.808594 L 176.011719 200.25 C 201.820312 180.589844 222.402344 159.429688 237.894531 140.976562 L 253.195312 147.222656 L 245.140625 132.09375 C 246.929688 129.820312 248.648438 127.609375 250.289062 125.457031 L 258.3125 128.136719 L 255.453125 118.441406 C 259.351562 113.066406 262.605469 108.238281 265.238281 104.15625 L 270.855469 95.472656 Z M 612.847656 200.265625 C 566.53125 164.984375 537.082031 124.914062 523.636719 104.171875 L 518.152344 95.683594 L 504.949219 118.804688 L 596.03125 217.167969 L 625.058594 210.574219 L 625.390625 209.824219 Z M 612.847656 200.265625 " fill-opacity="1" fill-rule="nonzero"/><path fill="#ffffff" d="M 577.929688 482.414062 L 505.671875 457.128906 C 504.785156 460.933594 503.667969 464.53125 502.480469 468.21875 C 501.578125 470.71875 500.761719 473.261719 499.695312 475.6875 C 498.683594 478.15625 497.691406 480.609375 496.515625 483 C 492.105469 492.636719 486.878906 501.890625 480.765625 510.515625 C 474.578125 519.066406 468.058594 527.375 460.425781 534.644531 C 458.574219 536.496094 456.765625 538.394531 454.703125 540.046875 L 448.757812 545.167969 C 446.828125 546.914062 444.601562 548.355469 442.507812 549.90625 C 440.382812 551.441406 438.277344 552.976562 436.125 554.4375 C 439.707031 550.613281 443.484375 547.078125 446.980469 543.269531 C 450.382812 539.371094 454.011719 535.730469 457.1875 531.664062 L 462.082031 525.71875 L 466.675781 519.546875 C 468.269531 517.546875 469.671875 515.410156 471.085938 513.285156 C 472.484375 511.132812 474.023438 509.117188 475.300781 506.890625 L 479.246094 500.339844 C 480.511719 498.113281 481.671875 495.855469 482.890625 493.628906 C 484.15625 491.402344 485.164062 489.082031 486.324219 486.808594 C 487.484375 484.535156 488.476562 482.203125 489.46875 479.871094 C 491.519531 475.21875 493.1875 470.433594 494.875 465.660156 C 496.367188 461.144531 497.707031 456.417969 498.65625 451.996094 L 487.828125 411.292969 C 476.402344 436.640625 458.527344 459.070312 436.273438 475.746094 C 442.507812 467.089844 448.441406 456.734375 452.730469 446.980469 C 436.152344 465.691406 414.636719 480.398438 391.644531 490.242188 C 394.988281 484.25 397.652344 477.265625 398.011719 470.402344 C 406.519531 464.292969 414.246094 456.539062 420.675781 448.277344 C 411.535156 455.410156 400.589844 462.035156 389.761719 466.519531 C 365.910156 486.101562 330.421875 511.871094 292.371094 527.765625 L 348.988281 571.28125 L 344.546875 593.4375 L 373.378906 603.3125 L 369.089844 714.847656 C 377.191406 719.136719 385.621094 723.457031 394.429688 727.851562 C 413.882812 718.175781 431.53125 708.722656 447.597656 699.464844 L 438.984375 670.445312 L 452.59375 681.238281 L 440.65625 655.796875 L 451.4375 645.773438 C 451.4375 601.835938 478.042969 576.789062 478.042969 576.789062 C 467.636719 596.449219 465.332031 616.105469 465.332031 616.105469 C 484.230469 568.691406 530.878906 528.308594 530.878906 528.308594 C 540.5 517.847656 550.8125 508.03125 562.105469 499.453125 C 552.46875 509.839844 543.210938 520.4375 534.355469 531.304688 C 525.5 542.199219 517.113281 553.445312 509.976562 565.382812 C 502.886719 577.316406 496.699219 589.855469 493.175781 602.980469 C 492.300781 606.324219 491.625 609.4375 491.171875 612.871094 L 489.9375 623.347656 L 487.378906 644.3125 L 487.179688 645.804688 L 486.050781 646.78125 L 474.050781 657.378906 C 475.496094 661.414062 476.851562 665.460938 478.132812 669.542969 C 479.109375 672.6875 480.03125 675.878906 480.917969 679.070312 C 581.378906 613.5625 601.464844 558.742188 604.71875 510.96875 C 592.203125 494.109375 580.386719 484.339844 577.929688 482.414062 Z M 429.933594 518.914062 C 427.132812 521.804688 424.304688 524.636719 421.320312 527.328125 C 413.960938 534.101562 405.769531 540.046875 397.199219 545.242188 C 395.015625 546.507812 392.847656 547.742188 390.636719 548.945312 C 388.390625 550.074219 386.089844 551.066406 383.816406 552.136719 L 380.382812 553.625 C 379.222656 554.078125 378.03125 554.5 376.828125 554.890625 C 374.449219 555.671875 372.085938 556.46875 369.691406 557.132812 C 371.722656 555.65625 373.785156 554.273438 375.835938 552.933594 L 378.921875 550.929688 L 381.902344 548.765625 C 383.890625 547.320312 385.9375 545.980469 387.894531 544.550781 C 389.808594 543.027344 391.765625 541.570312 393.707031 540.125 C 399.472656 535.636719 405.179688 531.046875 410.691406 526.230469 C 410.042969 526.425781 409.398438 526.621094 408.734375 526.816406 C 401.566406 528.910156 394.292969 530.597656 386.960938 531.859375 C 383.300781 532.433594 379.628906 533.09375 375.941406 533.5 L 370.429688 534.179688 L 364.871094 534.613281 C 361.183594 534.929688 357.464844 534.914062 353.777344 534.976562 C 350.070312 534.929688 346.367188 534.707031 342.679688 534.417969 L 364.390625 530.703125 C 371.589844 529.480469 378.695312 527.960938 385.757812 526.230469 C 392.773438 524.378906 399.730469 522.363281 406.550781 520 C 408.265625 519.414062 409.953125 518.808594 411.640625 518.148438 C 413.339844 517.53125 415.011719 516.882812 416.683594 516.222656 C 419.9375 514.898438 423.308594 513.421875 426.261719 511.960938 C 429.90625 508.46875 433.519531 504.933594 437.085938 501.351562 C 443.984375 494.410156 450.726562 487.304688 457.59375 480.082031 C 453.421875 489.1875 447.824219 497.511719 441.722656 505.429688 C 438.066406 510.109375 434.105469 514.597656 429.964844 518.886719 L 429.980469 518.902344 C 429.996094 518.886719 429.964844 518.914062 429.933594 518.914062 Z M 554.382812 601.054688 C 542.394531 617.429688 523.726562 630.738281 504.105469 635.945312 C 517.070312 623.933594 530.574219 610.28125 540.304688 595.546875 C 531.765625 600.84375 522.324219 604.621094 512.492188 606.773438 C 536.628906 590.398438 557.167969 568.796875 572.285156 543.871094 C 573.21875 564.148438 566.382812 584.707031 554.382812 601.054688 Z M 336.566406 593.257812 C 327.457031 589.75 316.929688 588.847656 307.535156 590.941406 C 306.828125 583.488281 306.253906 576.277344 305.546875 568.8125 C 302.867188 575.527344 300.746094 583.308594 298.800781 590.292969 C 294.195312 578.3125 291.136719 565.425781 290.144531 552.648438 C 288.941406 557.027344 288.230469 561.695312 287.027344 566.058594 C 278.550781 562.085938 269.9375 559.601562 260.722656 558.019531 C 261.820312 550.480469 264.246094 542.5625 267.5 535.667969 C 263.628906 539.941406 259.59375 544.789062 255.707031 549.066406 C 259.351562 536.359375 265.464844 524.363281 273.535156 513.902344 L 268.507812 511.089844 L 270.917969 507.535156 C 272.511719 505.1875 273.835938 502.613281 274.9375 499.949219 L 268.703125 490.574219 C 264.292969 495.089844 260 499.875 255.917969 504.738281 C 250.800781 510.847656 245.96875 517.183594 241.433594 523.703125 C 236.84375 530.203125 232.761719 537.023438 228.96875 543.976562 C 225.894531 549.636719 223.246094 555.476562 220.910156 561.4375 L 270.238281 573.238281 L 272.617188 573.808594 L 273.175781 576.1875 L 277.40625 594.988281 C 283.472656 595.574219 289.421875 596.402344 295.382812 597.457031 C 302.28125 598.617188 309.148438 600.074219 315.9375 601.792969 C 322.714844 603.539062 329.457031 605.511719 336.039062 607.976562 C 342.589844 610.476562 348.988281 613.457031 354.921875 617.160156 C 348.21875 615.113281 341.578125 613.351562 334.878906 611.757812 C 328.691406 610.371094 322.503906 609.09375 316.253906 607.992188 C 315.742188 618.152344 315.847656 628.34375 316.613281 638.488281 C 307.414062 634.652344 297.71875 630.148438 289.105469 625.136719 C 299.375 640.007812 314.3125 652.515625 331.339844 658.566406 C 318.046875 659.515625 303.980469 658.070312 291.816406 652.578125 C 300.925781 660.433594 311.539062 666.636719 323.042969 670.113281 C 323.253906 677.050781 323.675781 683.585938 325.210938 690.148438 C 336.386719 696.90625 348.386719 703.753906 361.335938 710.753906 L 365.25 608.882812 L 335.464844 598.691406 Z M 698.101562 331.488281 C 698.027344 331.367188 697.921875 331.246094 697.832031 331.113281 C 697.558594 330.734375 697.273438 330.359375 696.988281 329.96875 C 696.804688 329.757812 696.625 329.53125 696.460938 329.320312 C 696.21875 329.019531 695.992188 328.734375 695.738281 328.417969 C 695.480469 328.101562 695.179688 327.785156 694.910156 327.46875 C 694.714844 327.226562 694.53125 327.015625 694.320312 326.792969 C 693.960938 326.402344 693.597656 326.007812 693.191406 325.585938 C 693.058594 325.453125 692.921875 325.285156 692.757812 325.136719 C 692.199219 324.5625 691.625 324.007812 691.039062 323.433594 C 682.789062 315.609375 675.425781 312.777344 672.65625 312.777344 C 672.203125 312.777344 671.871094 312.855469 671.675781 312.988281 C 670.804688 314.449219 673.632812 322.636719 683.226562 331.699219 C 692.742188 340.714844 701.050781 343.109375 702.558594 342.160156 C 703.128906 341.121094 701.972656 336.921875 698.101562 331.488281 Z M 665.941406 322.019531 C 665.578125 321.3125 665.308594 320.636719 665.050781 319.988281 L 657.539062 327.921875 C 657.644531 331.414062 658.304688 341.0625 662.386719 353.238281 C 666.601562 353.945312 676.734375 355.285156 690.285156 355.132812 L 695.886719 349.21875 C 689.957031 347.246094 683.316406 342.703125 677.773438 337.464844 C 672.550781 332.511719 668.347656 327.015625 665.941406 322.019531 Z M 672.1875 374.234375 L 682.894531 362.945312 C 675.695312 362.765625 669.808594 362.195312 665.636719 361.683594 C 667.398438 365.746094 669.566406 369.960938 672.1875 374.234375 Z M 633.039062 353.796875 C 632.890625 359.03125 633.402344 379.746094 650.476562 397.191406 L 666.601562 380.167969 C 655.265625 362.449219 651.484375 345.652344 650.25 335.628906 Z M 625.464844 361.804688 L 606.914062 381.371094 C 615.210938 385.496094 626.113281 386.414062 632.964844 386.535156 C 628.039062 377.171875 626.144531 368.273438 625.464844 361.804688 Z M 634.515625 394.433594 C 630.359375 394.433594 624.304688 394.164062 617.9375 392.992188 C 619.351562 399.359375 622.542969 410.089844 629.351562 419.480469 L 645.054688 402.910156 C 642.269531 400.109375 639.875 397.234375 637.796875 394.359375 C 636.910156 394.40625 635.808594 394.433594 634.515625 394.433594 Z M 601.328125 387.285156 L 592.925781 396.152344 C 593.003906 400.757812 594.464844 417.628906 610.046875 439.863281 L 623.824219 425.308594 C 613.886719 412.273438 610.484375 396.933594 609.476562 390.867188 C 606.628906 389.933594 603.875 388.761719 601.328125 387.285156 Z M 590.441406 429.671875 C 593.109375 432.171875 595.652344 434.15625 597.988281 435.722656 C 590.023438 422.222656 586.90625 411.082031 585.730469 403.738281 L 578.925781 410.933594 C 578.050781 412.394531 580.867188 420.597656 590.441406 429.671875 Z M 244.640625 473.097656 L 241.132812 473.023438 L 240.171875 462.320312 C 235.066406 462.140625 230.351562 461.492188 227.402344 461.027344 L 223.9375 468.792969 C 222.359375 492.980469 222.417969 512.519531 227.144531 531.394531 C 229.628906 527.238281 232.203125 523.175781 234.992188 519.230469 C 239.671875 512.472656 244.640625 505.957031 249.910156 499.664062 C 254.503906 494.199219 259.21875 488.960938 264.292969 483.859375 L 257.199219 473.203125 C 256.761719 473.203125 256.328125 473.21875 255.875 473.21875 C 252.171875 473.234375 248.421875 473.171875 244.640625 473.097656 Z M 527.777344 376.839844 C 528.5 376.085938 529.3125 375.484375 530.199219 375.003906 C 537.335938 371.195312 549.609375 376.148438 560.960938 382.726562 C 561.066406 380.121094 561.171875 377.5625 561.324219 375.046875 C 562.617188 353.085938 565.027344 331.910156 568.476562 311.800781 C 557.0625 329.351562 541.460938 349.898438 520.757812 370.472656 C 512.328125 378.839844 502.71875 387.453125 491.925781 395.984375 L 505.988281 448.894531 L 506.363281 449.027344 L 528.574219 425.546875 C 526.871094 423.167969 525.246094 420.808594 523.800781 418.519531 C 514.417969 403.570312 512.265625 393.230469 517.460938 387.753906 Z M 581.832031 255.371094 C 586.03125 241.839844 590.773438 229 596.042969 217.167969 C 551.6875 182.835938 522.21875 145.144531 504.964844 118.816406 L 283.878906 118.816406 C 266.640625 145.160156 237.171875 182.820312 192.832031 217.183594 C 201.203125 235.984375 208.234375 257.039062 213.804688 279.890625 L 276.53125 182.261719 Z M 581.832031 255.371094 " fill-opacity="1" fill-rule="nonzero"/><path fill="#889baa" d="M 248.347656 465.285156 C 382.925781 467.4375 467.515625 412.121094 514.945312 365.113281 C 546.324219 334 565.992188 302.390625 576.679688 282.101562 L 514.511719 270.753906 C 500.386719 298.898438 476.234375 316.496094 476.234375 316.496094 C 487.03125 300.554688 490.417969 275.902344 490.417969 275.902344 C 468.933594 321.433594 413.234375 354.109375 411.488281 355.132812 L 444.359375 346.3125 C 385.652344 388.292969 310.515625 400.800781 308.183594 401.179688 C 384.808594 369.855469 406.808594 299.546875 406.808594 299.546875 C 396.191406 317.265625 366.199219 336.9375 365.25 337.554688 C 390.46875 309.285156 398.933594 271.28125 398.933594 271.28125 C 378.695312 315.488281 316.855469 340.144531 316.855469 340.144531 C 381.121094 273.855469 351.53125 208.332031 351.53125 208.332031 C 320.695312 246.925781 270.300781 251.320312 249.054688 251.320312 C 245.847656 251.320312 243.332031 251.214844 241.628906 251.125 L 115.738281 447.132812 C 150.792969 455.742188 184.984375 461.371094 217.492188 463.855469 L 243.105469 406.386719 Z M 407.078125 404.460938 C 416.1875 399.75 425.28125 395.066406 433.941406 389.648438 C 438.351562 387.089844 442.628906 384.277344 446.949219 381.535156 C 451.148438 378.644531 455.425781 375.847656 459.507812 372.777344 C 467.816406 366.890625 475.84375 360.539062 483.566406 353.839844 C 491.367188 347.246094 498.761719 340.1875 505.988281 332.964844 C 520.292969 318.332031 533.738281 302.707031 545.152344 285.429688 C 540.996094 294.941406 535.5 303.824219 529.71875 312.492188 C 523.800781 321.058594 517.402344 329.320312 510.488281 337.132812 C 496.699219 352.785156 481.070312 366.90625 464.113281 379.15625 C 447.160156 391.410156 428.835938 401.765625 409.683594 410.042969 C 390.484375 418.234375 370.472656 424.417969 350.058594 428.03125 C 369.644531 421.242188 388.707031 413.535156 407.078125 404.460938 Z M 248.015625 310.324219 C 248.015625 310.324219 276.667969 312.371094 300.308594 300.042969 C 300.308594 300.042969 274.726562 303.085938 255.738281 293.871094 C 255.738281 293.871094 306.269531 289.238281 339.335938 270.226562 C 339.335938 270.226562 315.125 333.957031 224 350.410156 Z M 534.128906 407.636719 C 529.914062 400.921875 527.171875 395.144531 525.894531 390.328125 L 523.214844 393.15625 C 521.753906 394.691406 522.503906 401.585938 530.5 414.320312 C 538.421875 426.902344 550.964844 441.609375 565.839844 455.667969 C 575.972656 465.253906 586.300781 473.714844 595.984375 480.425781 L 600.335938 474.992188 L 600.335938 474.980469 C 590.519531 468.070312 580.308594 459.609375 570.71875 450.535156 C 555.375 435.996094 542.382812 420.761719 534.128906 407.636719 Z M 577.464844 426.871094 C 576.441406 425.519531 575.507812 424.117188 574.679688 422.734375 C 574.664062 422.671875 574.632812 422.65625 574.632812 422.65625 C 570.734375 416.035156 569.347656 409.5625 573.1875 405.5 L 576.078125 402.457031 C 550.875 383.175781 535.953125 379.640625 533.496094 382.242188 C 532.035156 383.777344 532.789062 390.6875 540.785156 403.421875 C 548.691406 416.003906 561.246094 430.710938 576.125 444.769531 C 578.019531 446.5625 579.875 448.261719 581.695312 449.917969 C 595.335938 461.582031 614.777344 460.632812 614.777344 460.632812 C 596.949219 452.550781 583.140625 434.96875 577.464844 426.871094 Z M 494.425781 421.542969 C 492.722656 415.976562 490.449219 409.019531 487.183594 404.203125 C 464.957031 422.867188 437.253906 436.640625 409.636719 445.582031 C 396.628906 449.78125 390.273438 462.289062 378.742188 469.636719 C 379.507812 483.242188 377.339844 497.015625 372.445312 509.75 C 393.269531 503.789062 411.746094 493.703125 427.675781 479.042969 C 424.4375 485.515625 420.765625 492.273438 417.527344 498.761719 C 451.511719 482.730469 477.980469 455.335938 494.425781 421.542969 Z M 448.378906 544.445312 C 463.664062 536.511719 477.980469 525.34375 488.957031 512.082031 C 485.992188 520.570312 483.054688 528.746094 478.765625 536.632812 C 496.082031 521.160156 511.015625 501.019531 520.097656 479.644531 C 540.332031 481.601562 560.675781 482.59375 581.015625 482.625 C 554.546875 472.839844 529.101562 462.816406 502.628906 453.03125 C 494.710938 488.527344 476.128906 520.949219 448.378906 544.445312 Z M 319.582031 527.148438 C 336.792969 539.296875 358.429688 543.75 378.980469 539.128906 C 372.265625 548.554688 363.726562 556.875 354.695312 564.117188 C 374.480469 565.019531 393.359375 558.578125 409.5625 547.183594 C 425.75 535.789062 437.433594 518.886719 443.246094 499.964844 C 404.472656 517.367188 362.085938 526.699219 319.582031 527.148438 Z M 340.375 597.320312 C 340.253906 593.46875 339.078125 589.507812 338.960938 585.65625 C 318.964844 564.792969 298.246094 543.390625 278.25 522.527344 C 277.285156 513.058594 276.203125 503.410156 277.617188 494.003906 C 274.257812 491.339844 270.148438 489.640625 266.789062 486.976562 C 262.167969 492.125 258.328125 496.082031 254.851562 502.058594 C 247.292969 515.015625 241.238281 528.863281 236.859375 543.210938 C 243.226562 535.488281 249.625 527.917969 257.15625 521.324219 C 252.441406 533.5 249.082031 546.566406 247.082031 559.464844 C 260.585938 563.125 274.273438 567.261719 287.164062 572.695312 C 290.386719 583.140625 292.703125 593.40625 295.925781 603.839844 C 299.644531 604.757812 302.402344 604.726562 306.121094 605.644531 C 312.503906 597.984375 321.28125 595.0625 331.070312 596.976562 C 331.3125 599.039062 330.949219 601.355469 331.191406 603.402344 C 344.140625 606.789062 356.667969 610.628906 369.34375 614.902344 C 369.390625 611.515625 368.335938 609.347656 367.402344 606.097656 C 358.488281 603.265625 349.289062 600.136719 340.375 597.320312 Z M 347.375 663.082031 C 338.449219 658.3125 330.917969 651.792969 324.1875 644.238281 C 323.722656 631.910156 323.949219 619.554688 324.882812 607.257812 C 321.148438 606.820312 318.511719 605.269531 314.777344 604.832031 C 312.910156 608.972656 311.042969 613.953125 309.175781 618.09375 C 301.902344 616.875 293.832031 615.789062 286.46875 615.261719 C 284.738281 625.453125 283.566406 636.503906 281.832031 646.691406 C 291.621094 670.339844 311.554688 689.710938 335.121094 699.707031 C 332.109375 689.5 331.835938 678.375 332.710938 667.765625 C 337.859375 667.855469 343.039062 665.914062 347.375 663.082031 Z M 545.558594 514.414062 C 521.347656 528.851562 499.09375 548.253906 481.941406 570.621094 C 481.988281 567.894531 483.117188 565.277344 483.929688 562.6875 C 459.988281 579.140625 443.53125 607.226562 441.453125 636.199219 C 437.808594 639.527344 434.796875 642.355469 430.234375 644.253906 C 430.777344 650.980469 432.601562 657.875 435.128906 664.152344 C 431.167969 662.058594 428.382812 659.847656 424.421875 657.753906 C 426.289062 675.789062 431.621094 693.457031 440.054688 709.503906 C 446.890625 703.574219 454.613281 698.125 462.863281 694.378906 C 460.378906 678.738281 462.683594 662.648438 467.277344 647.503906 C 471.867188 632.363281 478.71875 618.003906 485.539062 603.71875 C 494.109375 585.761719 502.734375 567.699219 514.40625 551.59375 C 523.742188 538.695312 535.652344 526.878906 545.558594 514.414062 Z M 497.960938 606.984375 C 504.074219 610.25 510.21875 612.148438 516.996094 610.703125 C 510.882812 622.609375 502.042969 633.507812 492.453125 642.839844 C 519.734375 639.226562 544.519531 627.425781 560.992188 605.40625 C 577.464844 583.382812 583.335938 556.363281 572.238281 531.199219 C 555.195312 562.71875 529.128906 589.300781 497.960938 606.984375 Z M 592.625 434.835938 C 593.648438 436.535156 595.246094 438.433594 597.1875 438.027344 C 598.46875 437.769531 599.355469 436.519531 599.597656 435.242188 C 599.839844 433.960938 599.554688 432.636719 599.25 431.375 C 596.964844 421.949219 593.136719 412.964844 588.996094 404.1875 C 587.914062 401.902344 584.617188 397.65625 581.875 400.667969 C 580.234375 402.472656 582.148438 407.199219 582.597656 409.171875 C 584.675781 418.246094 587.792969 426.859375 592.625 434.835938 Z M 600.304688 383.539062 C 598.980469 386.742188 595.878906 388.382812 592.957031 390.25 C 596.78125 393.035156 601.117188 395.15625 605.664062 396.453125 C 607.140625 410.617188 612.488281 424.570312 622.046875 435.152344 C 624.410156 431.855469 625.675781 428.632812 628.054688 425.324219 C 620.375 414.199219 615.257812 400.9375 613.601562 387.527344 C 609.597656 385.417969 604.761719 384.183594 600.304688 383.539062 Z M 632.285156 391.152344 C 627.90625 390.972656 623.507812 390.777344 619.128906 390.597656 C 618.207031 390.550781 617.230469 390.535156 616.445312 391.019531 C 615.753906 391.457031 615.347656 392.238281 615.152344 393.050781 C 614.414062 396.136719 616.628906 399.34375 619.488281 400.726562 C 622.347656 402.113281 625.675781 402.082031 628.839844 401.871094 C 632.089844 401.644531 640.359375 401.480469 641.1875 397.296875 C 642.089844 392.613281 635.417969 391.289062 632.285156 391.152344 Z M 628.539062 388.070312 C 630.132812 389.242188 632.601562 389.4375 633.957031 387.992188 C 635.464844 386.382812 634.875 383.792969 634.199219 381.703125 C 631.382812 373.015625 629.183594 363.683594 625.554688 355.332031 C 615.574219 360.207031 622.347656 375.558594 625.332031 383.160156 C 626.066406 384.996094 626.957031 386.894531 628.539062 388.070312 Z M 663.46875 374.085938 C 659.8125 358.113281 655.910156 343.710938 652.253906 327.738281 C 646.5 332.089844 641.199219 337.027344 636.457031 342.476562 C 634.246094 345.019531 632.121094 347.714844 630.828125 350.828125 C 628.582031 356.21875 628.988281 362.421875 630.765625 367.972656 C 632.542969 373.527344 635.78125 379.472656 638.804688 384.472656 C 637.253906 374.523438 637.902344 364.285156 639.710938 354.367188 C 642 362.839844 646.652344 370.683594 653.003906 376.734375 C 649.601562 367.808594 647.976562 358.191406 648.292969 348.632812 C 652.75 357.46875 657.824219 365.972656 663.46875 374.085938 Z M 681.132812 359.589844 C 679.519531 358.941406 677.757812 358.824219 676.042969 358.703125 C 673.769531 358.550781 671.496094 358.402344 669.222656 358.25 C 667.898438 358.160156 666.542969 358.085938 665.246094 358.445312 C 663.96875 358.808594 662.761719 359.710938 662.402344 360.988281 C 661.859375 362.917969 663.394531 364.84375 665.082031 365.925781 C 668.410156 368.050781 686.355469 370.757812 684.582031 363.203125 C 684.171875 361.515625 682.726562 360.238281 681.132812 359.589844 Z M 691.792969 341.917969 C 680.953125 336.621094 671.675781 328.160156 665.414062 317.835938 C 664.976562 317.113281 660.773438 319.957031 660.429688 320.605469 C 659.449219 322.410156 660.21875 323.527344 660.894531 325.4375 C 662.25 329.304688 664.417969 333.007812 666.769531 336.335938 C 671.554688 343.078125 677.984375 348.675781 685.410156 352.363281 C 687.894531 353.597656 690.617188 354.636719 693.375 354.261719 C 696.113281 353.886719 698.777344 351.644531 698.71875 348.875 C 698.644531 345.410156 694.894531 343.425781 691.792969 341.917969 Z M 682.863281 333.460938 C 682.757812 330.375 682.609375 326.988281 683.917969 324.097656 C 684.894531 321.929688 687.757812 320.0625 687.636719 317.488281 C 687.394531 312.644531 677.789062 309.796875 673.996094 308.820312 C 672.851562 308.519531 671.570312 308.292969 670.546875 308.878906 C 668.9375 309.78125 668.84375 312.054688 669.148438 313.878906 C 670.488281 322.003906 675.679688 329.410156 682.863281 333.460938 Z M 682.863281 333.460938 " fill-opacity="1" fill-rule="nonzero"/><path fill="#38485f" d="M 288.382812 472.042969 C 330.511719 469.046875 367.222656 460.363281 398.960938 448.382812 C 378.289062 466.609375 339.289062 498.023438 296.226562 517.5 L 279.710938 508.257812 C 286.742188 495.449219 288.125 479.253906 288.382812 472.042969 Z M 578.53125 286.949219 C 580.023438 281.621094 581.304688 277.148438 582.792969 271.820312 C 492.558594 242.589844 399.789062 217.015625 307.398438 195.507812 C 287.75 211.539062 267.210938 225.28125 244.71875 236.976562 C 240.425781 245.542969 235.832031 254.527344 231.542969 263.078125 C 259.125 267.066406 287.691406 264.054688 313.828125 254.390625 C 306.332031 262.683594 295.699219 268.496094 284.996094 271.730469 C 297.492188 271.867188 310.019531 270.089844 322.035156 266.675781 C 296.273438 278.746094 267.710938 285.292969 239.265625 284.480469 C 244.101562 292.699219 250.152344 298.871094 259.21875 301.878906 C 252.605469 303.71875 243.949219 303.957031 237.640625 301.261719 C 227.160156 323.902344 212.042969 344.824219 197.089844 364.78125 C 239.945312 366.289062 284.695312 350.5 316.449219 321.703125 C 311.195312 336.078125 301.511719 348.4375 289.632812 358.101562 C 316.628906 352.621094 342.996094 341.511719 365.160156 325.152344 C 357.601562 333.699219 350.253906 342.460938 342.695312 351.011719 C 354.769531 348.363281 365.820312 343.742188 376.527344 337.554688 C 351.382812 369.691406 314.523438 394.269531 275.3125 405.589844 C 346.652344 413.429688 422.015625 384.621094 470.421875 331.652344 C 464.941406 333.1875 458.089844 335.507812 452.609375 337.042969 C 457.925781 332.753906 463.722656 327.410156 469.039062 323.132812 C 469.730469 323.992188 470.046875 324.773438 470.738281 325.632812 C 490.238281 313.15625 507.375 297.816406 521.570312 279.542969 C 523.769531 280.039062 525.96875 280.492188 528.167969 280.929688 C 488.175781 342.023438 431.035156 391.785156 364.964844 422.914062 C 440.1875 402.546875 506.847656 351.160156 545.875 283.742188 C 556.699219 285.15625 567.601562 286.0625 578.53125 286.949219 Z M 274.785156 458.316406 C 272.558594 451.121094 271.773438 443.910156 269.546875 436.714844 C 266.640625 443.054688 264.199219 449.4375 261.296875 455.773438 C 257.410156 430.574219 255.015625 405.421875 251.132812 380.242188 C 239.386719 400.230469 227.6875 420.355469 215.941406 440.34375 C 215.808594 430.410156 217.464844 419.753906 217.328125 409.820312 C 211.335938 419.859375 206.277344 428.648438 200.285156 438.6875 C 172.125 444.800781 141.0625 447.570312 112.289062 446.003906 C 147.375 459.386719 182.367188 468.160156 219.917969 468.6875 C 221.769531 463.703125 224.074219 458.933594 225.910156 453.953125 C 230.023438 453.785156 235.652344 454.402344 239.75 454.238281 C 241.585938 458.886719 244.625 464.335938 246.464844 468.988281 C 284.859375 468.523438 323.089844 463.058594 360.597656 454.808594 C 332.304688 459.777344 303.335938 461.476562 274.785156 458.316406 Z M 611.238281 452.445312 C 600.382812 443.761719 589.417969 434.96875 580.898438 423.996094 C 578.441406 420.835938 576.140625 417.34375 575.628906 413.371094 C 575.113281 409.398438 576.921875 404.882812 580.65625 403.4375 C 577.675781 400.5625 575.550781 398.242188 572.132812 395.910156 C 565.734375 400.15625 563.507812 408.914062 565.070312 416.425781 C 566.636719 423.9375 571.289062 430.441406 576.289062 436.25 C 580.910156 441.625 585.957031 446.667969 591.347656 451.273438 C 583.109375 449.179688 575.023438 445.328125 568.925781 439.410156 C 572.40625 447.148438 577.328125 454.808594 584.027344 460.003906 C 581.710938 462.996094 578.578125 465.871094 576.257812 468.882812 C 585.113281 477.160156 593.726562 485.363281 602.578125 493.644531 C 610.289062 482.851562 617.890625 472.917969 625.617188 462.125 C 620.707031 459.476562 615.617188 455.953125 611.238281 452.445312 Z M 611.238281 452.445312 " fill-opacity="1" fill-rule="nonzero"/><path fill="#36e9fd" d="M 283.746094 467.980469 C 325.949219 465.480469 368.773438 457.640625 408.191406 442.359375 C 404.503906 450.773438 396.960938 456.796875 389.339844 461.945312 C 381.722656 467.078125 374.058594 471.140625 368.171875 478.183594 C 352.765625 482.324219 336.386719 484.222656 320.710938 481.242188 C 324.1875 484.492188 327.894531 487.863281 332.304688 489.667969 C 315.90625 489.761719 299.496094 485.003906 285.6875 476.152344 C 285.101562 473.292969 284.347656 470.808594 283.746094 467.980469 Z M 115.738281 447.132812 L 150.835938 411.292969 L 150.835938 428.015625 L 192.832031 354.335938 L 173.316406 374.175781 L 225.851562 275.734375 Z M 115.738281 447.132812 " fill-opacity="1" fill-rule="nonzero"/><path fill="#012130" d="M 709.648438 332.527344 C 707.179688 327.378906 702.859375 321.734375 697.484375 316.632812 C 692.125 311.558594 686.25 307.554688 680.953125 305.359375 C 671.601562 301.472656 666.859375 304.425781 664.871094 306.515625 L 611.101562 363.292969 C 620.300781 254.917969 656.800781 207.761719 657.175781 207.292969 L 661.046875 202.476562 L 655.792969 199.257812 C 572.722656 148.167969 534.792969 73.738281 534.414062 72.984375 L 532.894531 69.988281 L 255.996094 69.988281 L 254.472656 72.984375 C 254.097656 73.738281 216.257812 148.109375 133.113281 199.242188 L 127.875 202.460938 L 131.714844 207.277344 C 132.03125 207.671875 162.867188 247.453125 174.972656 337.570312 L 100.816406 453.003906 L 108.148438 454.855469 C 130.660156 460.558594 153.183594 465.121094 175.09375 468.386719 C 172.804688 505.488281 173.0625 548.6875 201.667969 593.527344 C 233.046875 642.6875 293.53125 688.296875 392.035156 737.066406 L 394.460938 738.253906 L 396.882812 737.066406 C 484.078125 693.910156 542.726562 652.066406 576.152344 609.167969 C 608.285156 567.941406 613.75 530.28125 614.550781 501.679688 C 625.496094 506.136719 633.085938 505.851562 637.4375 501.183594 L 647.734375 490.316406 C 658.515625 478.9375 639.121094 452.324219 625.902344 436.761719 L 709.378906 348.601562 C 711.351562 346.539062 714.015625 341.664062 709.648438 332.527344 Z M 642.960938 402.941406 L 629.515625 417.117188 C 624.398438 409.53125 621.519531 401.207031 619.910156 394.855469 C 625.660156 395.746094 630.933594 395.941406 634.5 395.941406 C 635.449219 395.941406 636.308594 395.925781 637.042969 395.910156 C 638.867188 398.347656 640.839844 400.710938 642.960938 402.941406 Z M 609.460938 380.875 L 624.367188 365.144531 C 625.179688 370.519531 626.910156 377.503906 630.480469 384.953125 C 624.789062 384.695312 616.402344 383.777344 609.460938 380.875 Z M 488.582031 646.570312 L 491.414062 623.527344 L 492.648438 613.066406 C 493.039062 610.085938 493.625 607.179688 494.621094 603.371094 C 497.691406 591.917969 502.992188 580.085938 511.273438 566.148438 C 517.507812 555.703125 525.214844 544.941406 535.53125 532.25 C 544.097656 521.730469 553.402344 509.3125 563.21875 498.746094 C 563.21875 498.746094 540.363281 515.769531 529.824219 527.238281 C 527.972656 528.863281 490.191406 562.296875 469.488281 603.28125 C 471.371094 596.101562 474.457031 586.769531 479.367188 577.511719 L 483.613281 569.492188 L 477.003906 575.722656 C 476.730469 575.976562 450.203125 601.476562 449.929688 645.140625 L 438.816406 655.46875 L 448.5 676.089844 L 436.167969 666.320312 L 445.789062 698.773438 C 429.980469 707.863281 412.695312 717.074219 394.398438 726.183594 C 385.726562 721.847656 377.914062 717.84375 370.59375 713.976562 L 374.902344 602.257812 L 346.261719 592.460938 L 350.644531 570.695312 L 295.324219 528.171875 C 332.863281 512.035156 367.6875 486.597656 390.53125 467.84375 C 397.410156 464.96875 404.546875 461.160156 411.371094 456.75 C 406.835938 461.476562 402.019531 465.691406 397.125 469.199219 L 396.539062 469.621094 L 396.507812 470.34375 C 396.117188 477.761719 392.9375 484.867188 390.335938 489.519531 L 388.179688 493.371094 L 392.246094 491.625 C 413.25 482.625 432.058594 470.085938 447.191406 455.050781 C 443.589844 461.957031 439.375 468.867188 435.070312 474.859375 L 429.316406 482.851562 L 437.207031 476.9375 C 458.527344 460.933594 475.84375 439.816406 487.46875 415.675781 L 497.132812 452.007812 C 496.261719 456.027344 494.996094 460.574219 493.476562 465.148438 L 493.386719 465.390625 C 491.773438 469.980469 490.101562 474.722656 488.113281 479.253906 L 487.753906 480.113281 C 486.894531 482.097656 486.007812 484.160156 485.011719 486.101562 C 484.5625 486.976562 484.140625 487.847656 483.71875 488.738281 C 483.054688 490.105469 482.378906 491.535156 481.609375 492.890625 C 481.113281 493.777344 480.648438 494.683594 480.164062 495.585938 C 479.441406 496.925781 478.734375 498.265625 477.996094 499.558594 L 474.035156 506.121094 C 473.253906 507.492188 472.367188 508.785156 471.433594 510.140625 C 470.90625 510.90625 470.378906 511.675781 469.882812 512.445312 L 469.609375 512.835938 C 468.269531 514.851562 466.988281 516.761719 465.5 518.644531 L 460.953125 524.757812 L 456.042969 530.730469 C 454.027344 533.320312 451.753906 535.804688 449.554688 538.199219 C 448.320312 539.535156 447.085938 540.890625 445.910156 542.246094 C 444.058594 544.261719 442.070312 546.265625 440.144531 548.207031 C 438.472656 549.894531 436.742188 551.625 435.070312 553.414062 L 425.777344 563.320312 L 437.011719 555.6875 C 438.953125 554.363281 440.894531 552.964844 442.777344 551.609375 L 443.457031 551.113281 C 444.058594 550.660156 444.660156 550.238281 445.277344 549.789062 C 446.796875 548.703125 448.378906 547.574219 449.796875 546.296875 L 455.710938 541.207031 C 457.535156 539.734375 459.191406 538.078125 460.773438 536.480469 L 461.507812 535.730469 C 469.761719 527.871094 476.507812 519.019531 482.03125 511.375 C 487.980469 502.976562 493.324219 493.628906 497.902344 483.648438 C 499.078125 481.242188 500.101562 478.742188 501.09375 476.289062 C 501.890625 474.480469 502.539062 472.601562 503.171875 470.792969 C 503.414062 470.101562 503.652344 469.425781 503.925781 468.6875 C 504.902344 465.660156 505.914062 462.441406 506.757812 459.097656 L 577.207031 483.753906 C 579.828125 485.847656 591.105469 495.269531 603.167969 511.449219 C 600.035156 555.945312 582.898438 610.3125 481.804688 676.707031 C 481.113281 674.222656 480.359375 671.648438 479.5625 669.105469 C 478.402344 665.402344 477.167969 661.714844 475.796875 657.859375 Z M 331.460938 660.042969 L 338.644531 659.53125 L 331.867188 657.125 C 317.789062 652.125 304.71875 642.539062 294.511719 629.820312 C 300.773438 633.128906 307.882812 636.441406 316.058594 639.859375 L 318.332031 640.808594 L 318.152344 638.351562 C 317.441406 629.019531 317.292969 619.402344 317.714844 609.753906 C 322.832031 610.6875 328.375 611.816406 334.5625 613.203125 C 341.789062 614.917969 348.324219 616.679688 354.511719 618.574219 L 363.292969 621.253906 L 359.949219 708.238281 C 348.234375 701.871094 337.015625 695.460938 326.566406 689.152344 C 325.226562 683.179688 324.804688 677.171875 324.578125 670.023438 L 324.550781 668.9375 L 323.511719 668.625 C 315.515625 666.214844 307.625 662.316406 300.277344 657.199219 C 309.582031 659.878906 320.199219 660.855469 331.460938 660.042969 Z M 355.734375 615.867188 C 350.207031 612.402344 343.945312 609.363281 336.582031 606.546875 C 330.707031 604.351562 324.265625 602.363281 316.3125 600.316406 C 309.371094 598.570312 302.414062 597.097656 295.65625 595.96875 C 289.84375 594.945312 284.273438 594.175781 278.65625 593.605469 L 274.652344 575.855469 L 273.882812 572.5625 L 222.976562 560.367188 C 225.292969 554.648438 227.703125 549.5 230.308594 544.699219 C 234.539062 536.964844 238.589844 530.386719 242.699219 524.558594 C 247.261719 517.984375 252.109375 511.644531 257.09375 505.699219 C 260.886719 501.183594 264.714844 496.894531 268.507812 492.964844 L 273.25 500.117188 C 272.179688 502.585938 270.992188 504.78125 269.683594 506.695312 L 266.355469 511.601562 L 271.308594 514.371094 C 263.644531 524.636719 257.773438 536.453125 254.261719 548.660156 L 252.488281 554.859375 L 256.824219 550.074219 C 258.78125 547.90625 260.8125 545.574219 262.785156 543.316406 C 261.144531 548.085938 259.925781 553.054688 259.230469 557.808594 L 259.019531 559.269531 L 260.46875 559.511719 C 270.058594 561.152344 278.535156 563.742188 286.394531 567.429688 L 288.007812 568.179688 L 288.472656 566.449219 C 288.910156 564.855469 289.285156 563.214844 289.632812 561.589844 C 291.09375 571.386719 293.726562 581.335938 297.371094 590.820312 L 299.011719 595.078125 L 300.414062 590.035156 C 301.679688 585.460938 303.0625 580.449219 304.644531 575.691406 C 304.765625 577.105469 304.902344 578.523438 305.019531 579.9375 C 305.335938 583.640625 305.667969 587.328125 306.03125 591.074219 L 306.195312 592.777344 L 307.851562 592.398438 C 316.449219 590.488281 326.207031 591.164062 334.820312 594.222656 L 333.734375 599.667969 L 363.699219 609.921875 L 363.292969 620.578125 Z M 185.890625 469.953125 C 195.722656 471.246094 205.253906 472.269531 214.285156 472.992188 C 212.839844 498.082031 213.339844 519.335938 220.070312 540.816406 C 216.652344 547.214844 213.519531 554.257812 210.492188 562.355469 L 208.382812 568.058594 L 233.921875 574.15625 C 230.730469 580.101562 225.578125 590.230469 220.777344 601.957031 C 188.058594 559.480469 183.011719 519.730469 185.890625 469.953125 Z M 526.285156 80.917969 C 534.234375 95.277344 572.238281 158.886719 645.128906 205.457031 C 634.875 220.992188 605.484375 273.792969 599.25 375.832031 L 581.410156 394.675781 C 578.636719 392.585938 574.753906 389.738281 570.265625 386.757812 C 570.34375 382.964844 570.492188 379.308594 570.71875 375.605469 C 572.417969 346.417969 576.140625 318.511719 581.769531 292.667969 C 590.746094 276.472656 595.003906 265.453125 595.773438 263.394531 L 597.867188 257.644531 L 591.421875 256.109375 C 595.652344 242.679688 600.515625 229.933594 605.875 218.207031 L 607.667969 214.261719 L 604.207031 211.628906 C 556.054688 174.917969 525.5625 133.386719 511.679688 111.910156 L 510.070312 109.425781 L 278.777344 109.425781 L 277.164062 111.910156 C 263.28125 133.386719 232.808594 174.917969 184.640625 211.628906 L 181.175781 214.261719 L 182.984375 218.222656 C 192.46875 238.886719 200.296875 262.65625 206.246094 288.859375 L 183.886719 323.660156 C 172.851562 254.691406 151.394531 217.136719 143.699219 205.472656 C 216.621094 158.902344 254.625 95.292969 262.574219 80.933594 L 526.285156 80.933594 Z M 584.796875 406.914062 C 586.015625 412.800781 588.441406 420.777344 593.214844 430.140625 C 592.640625 429.628906 592.054688 429.117188 591.480469 428.574219 C 582.597656 420.144531 580.234375 413.207031 580.28125 411.683594 Z M 289.84375 473.445312 C 325.753906 470.78125 360.007812 463.78125 391.824219 452.582031 C 370.894531 470.449219 335.195312 498.082031 296.316406 515.816406 L 281.757812 507.65625 C 287.976562 495.417969 289.480469 480.578125 289.84375 473.445312 Z M 284.695312 120.324219 L 504.152344 120.324219 C 521.074219 146.015625 550.285156 183.453125 594.191406 217.648438 C 589.359375 228.636719 584.855469 240.722656 580.820312 253.59375 L 275.839844 180.53125 L 214.421875 276.125 C 209.078125 254.917969 202.453125 235.261719 194.683594 217.648438 C 238.632812 183.375 267.816406 145.972656 284.695312 120.324219 Z M 565.855469 318.453125 C 562.992188 336.574219 560.976562 355.554688 559.816406 374.957031 C 559.726562 376.6875 559.636719 378.433594 559.5625 380.195312 C 545.800781 372.566406 535.695312 370.367188 529.492188 373.679688 C 528.46875 374.21875 527.535156 374.929688 526.691406 375.785156 L 516.363281 386.699219 C 510.65625 392.71875 512.734375 403.691406 522.519531 419.300781 C 523.859375 421.4375 525.351562 423.589844 526.617188 425.398438 L 506.847656 446.304688 L 493.609375 396.542969 C 503.546875 388.65625 513.019531 380.242188 521.796875 371.527344 C 538.179688 355.253906 552.964844 337.433594 565.855469 318.453125 Z M 225.414062 469.140625 L 228.304688 462.667969 C 231.980469 463.222656 235.503906 463.585938 238.785156 463.75 L 239.75 474.46875 L 244.597656 474.574219 C 247.699219 474.632812 251.777344 474.707031 255.859375 474.707031 C 256.039062 474.707031 256.207031 474.707031 256.386719 474.707031 L 262.347656 483.664062 C 257.890625 488.195312 253.433594 493.117188 248.738281 498.6875 C 243.511719 504.933594 238.46875 511.554688 233.742188 518.34375 C 231.769531 521.144531 229.796875 524.140625 227.746094 527.433594 C 223.878906 509.660156 224 491.128906 225.414062 469.140625 Z M 595.699219 478.378906 C 586.332031 471.789062 576.394531 463.585938 566.878906 454.566406 C 552.136719 440.644531 539.6875 426.058594 531.78125 413.507812 C 523.558594 400.441406 523.816406 394.855469 524.3125 394.179688 L 525.214844 393.230469 C 526.738281 397.65625 529.296875 402.757812 532.863281 408.433594 C 541.191406 421.695312 554.277344 437.03125 569.695312 451.617188 C 579 460.421875 588.832031 468.582031 598.183594 475.28125 Z M 242.457031 252.660156 C 244.519531 252.765625 246.75 252.8125 249.097656 252.8125 C 269.441406 252.8125 319.566406 248.71875 351.109375 211.269531 C 353.039062 216.582031 357.328125 230.65625 356.816406 249.484375 C 356.214844 271.6875 348.609375 305.253906 315.800781 339.089844 L 310.90625 344.148438 L 317.441406 341.542969 C 318.015625 341.316406 369.132812 320.574219 393.722656 283.683594 C 389.113281 297.167969 379.914062 318.890625 364.164062 336.546875 L 356.757812 344.839844 L 366.109375 338.804688 C 366.363281 338.636719 387.667969 324.789062 401.144531 309.601562 C 391.675781 330.300781 365.007812 376.328125 307.640625 399.777344 L 295.503906 404.746094 L 308.453125 402.667969 C 311.601562 402.15625 386.195312 389.785156 445.261719 347.546875 L 452.023438 342.71875 L 420.734375 351.117188 C 436.363281 340.761719 468.707031 316.828125 487 285.640625 C 484.984375 294.160156 481.25 306.472656 475.015625 315.667969 L 470.183594 322.816406 L 477.152344 317.730469 C 477.394531 317.550781 501.167969 300.03125 515.367188 272.453125 L 574.40625 283.230469 C 563.296875 303.957031 543.992188 334.226562 513.90625 364.0625 C 466.960938 410.585938 383.09375 465.527344 249.746094 463.808594 L 244.128906 400.488281 L 216.558594 462.273438 C 185.179688 459.820312 152.085938 454.402344 118.148438 446.167969 Z M 542.078125 402.640625 C 533.859375 389.558594 534.113281 383.972656 534.613281 383.296875 C 535.9375 382.003906 548.539062 383.566406 573.851562 402.652344 L 572.117188 404.476562 C 568.1875 408.628906 568.609375 415.328125 573.308594 423.351562 L 573.398438 423.53125 C 574.300781 425.035156 575.265625 426.480469 576.230469 427.761719 C 580.898438 434.429688 592.640625 449.644531 608.089844 458.84375 C 601.390625 458.105469 590.910156 455.816406 582.703125 448.820312 C 580.882812 447.179688 579.046875 445.492188 577.179688 443.714844 C 562.390625 429.71875 549.925781 415.132812 542.078125 402.640625 Z M 601.617188 389.167969 C 603.617188 390.25 605.816406 391.199219 608.148438 392.011719 C 609.308594 398.46875 612.726562 412.679688 621.867188 425.1875 L 610.242188 437.46875 C 596.496094 417.222656 594.660156 401.855469 594.464844 396.722656 Z M 634.53125 354.398438 L 649.179688 338.921875 C 650.835938 349.519531 654.917969 364.347656 664.691406 379.96875 L 650.460938 394.992188 C 635.554688 378.976562 634.425781 360.582031 634.53125 354.398438 Z M 679.492188 364.347656 L 672.460938 371.765625 C 670.878906 369.058594 669.402344 366.289062 668.09375 363.488281 C 671.855469 363.894531 675.679688 364.179688 679.492188 364.347656 Z M 673.0625 314.328125 C 675.589844 314.613281 682.292969 317.265625 690.0625 324.625 C 690.601562 325.152344 691.144531 325.664062 691.671875 326.21875 L 692.078125 326.640625 C 692.453125 327.046875 692.832031 327.425781 693.222656 327.875 C 693.386719 328.042969 693.523438 328.191406 693.75 328.476562 L 694.035156 328.792969 C 694.214844 328.988281 694.382812 329.183594 694.546875 329.378906 L 696.867188 332.375 C 699.804688 336.5 700.871094 339.496094 701.113281 340.867188 C 698.808594 340.59375 692.273438 338.261719 684.234375 330.644531 C 676.179688 323.027344 673.46875 316.585938 673.0625 314.328125 Z M 659.074219 328.507812 L 664.585938 322.683594 C 667.082031 327.890625 671.40625 333.519531 676.75 338.5625 C 682.097656 343.621094 687.984375 347.640625 693.253906 349.835938 L 689.65625 353.644531 C 677.019531 353.734375 667.714844 352.574219 663.546875 351.914062 C 659.992188 340.984375 659.222656 332.300781 659.074219 328.507812 Z M 410.285156 411.414062 C 429.679688 403.03125 448.09375 392.585938 465.003906 380.363281 C 482.199219 367.929688 497.871094 353.71875 511.621094 338.125 C 518.378906 330.480469 524.898438 322.140625 530.984375 313.320312 C 536.191406 305.492188 541.476562 293.871094 545.902344 283.757812 C 545.902344 283.757812 520.96875 315.488281 504.949219 331.878906 C 496.488281 340.339844 489.394531 346.945312 482.605469 352.679688 C 474.746094 359.5 466.6875 365.835938 458.617188 371.542969 C 455.667969 373.769531 452.550781 375.890625 449.523438 377.9375 C 448.378906 378.707031 447.25 379.488281 446.167969 380.242188 L 443.140625 382.167969 C 439.902344 384.246094 436.558594 386.382812 433.15625 388.355469 C 424.738281 393.621094 415.691406 398.304688 406.957031 402.820312 L 406.429688 403.089844 C 389.128906 411.640625 371.03125 420.746094 350.070312 428 C 350.058594 428.015625 390.410156 419.902344 410.285156 411.414062 Z M 430.613281 520.375 L 431.636719 519.320312 C 435.882812 514.882812 439.601562 510.621094 442.957031 506.316406 L 442.957031 506.300781 C 450.1875 496.910156 455.277344 488.75 458.996094 480.652344 L 462.757812 472.433594 L 455.140625 480.441406 C 448.621094 487.304688 442.460938 493.777344 436.046875 500.234375 C 432.449219 503.847656 428.878906 507.355469 425.417969 510.667969 C 422.738281 511.976562 419.546875 513.390625 416.15625 514.777344 C 414.5 515.4375 412.84375 516.085938 411.113281 516.703125 C 409.488281 517.351562 407.816406 517.9375 406.097656 518.523438 C 400.0625 520.617188 393.480469 522.589844 385.441406 524.710938 C 377.988281 526.546875 371.03125 527.992188 364.179688 529.167969 L 330.390625 534.960938 L 342.601562 535.878906 C 346.140625 536.148438 349.9375 536.390625 353.835938 536.4375 L 355.945312 536.40625 C 358.925781 536.375 361.996094 536.332031 365.023438 536.074219 L 370.640625 535.636719 L 376.136719 534.976562 C 378.90625 534.675781 381.675781 534.222656 384.371094 533.785156 C 385.320312 533.636719 386.269531 533.472656 387.246094 533.320312 C 392.953125 532.34375 398.722656 531.078125 404.457031 529.558594 C 400.964844 532.460938 397.15625 535.519531 392.832031 538.890625 C 390.921875 540.320312 388.949219 541.792969 387.023438 543.316406 C 385.96875 544.082031 384.882812 544.835938 383.800781 545.585938 C 382.882812 546.21875 381.949219 546.867188 381.027344 547.53125 L 378.125 549.652344 L 375.019531 551.667969 C 373.050781 552.964844 370.925781 554.363281 368.816406 555.914062 L 362.027344 560.851562 L 370.097656 558.578125 C 372.386719 557.929688 374.691406 557.179688 376.917969 556.441406 L 377.28125 556.320312 C 378.636719 555.867188 379.824219 555.445312 380.953125 555.011719 L 384.417969 553.503906 C 385.199219 553.128906 385.984375 552.78125 386.78125 552.421875 C 388.285156 551.730469 389.792969 551.035156 391.3125 550.285156 C 393.527344 549.078125 395.710938 547.832031 397.9375 546.550781 C 407.019531 541.058594 415.207031 534.976562 422.285156 528.472656 C 424.921875 526.09375 427.554688 523.535156 430.613281 520.375 Z M 340.734375 270.785156 L 342.242188 266.839844 L 338.582031 268.945312 C 306.195312 287.566406 256.101562 292.351562 255.605469 292.398438 L 250.214844 292.894531 L 255.089844 295.257812 C 267.769531 301.398438 283.082031 302.226562 292.296875 302.046875 C 271.050781 310.339844 248.375 308.863281 248.136719 308.851562 L 247.214844 308.789062 L 221.015625 352.515625 L 224.285156 351.929688 C 315.167969 335.492188 340.496094 271.429688 340.734375 270.785156 Z M 555.601562 601.941406 C 568.082031 584.933594 574.707031 563.742188 573.804688 543.796875 L 573.578125 538.859375 L 571.019531 543.089844 C 556.066406 567.746094 535.546875 589.34375 511.679688 605.523438 L 505.21875 609.90625 L 512.839844 608.234375 C 520.730469 606.519531 528.242188 603.792969 535.273438 600.136719 C 525.457031 613.503906 513.109375 625.542969 503.097656 634.832031 L 498.671875 638.941406 L 504.511719 637.390625 C 524.042969 632.210938 543.148438 618.964844 555.601562 601.941406 Z M 555.601562 601.941406 " fill-opacity="1" fill-rule="nonzero"/></svg>